<?xml version="1.0" standalone="no"?>
<!DOCTYPE svg PUBLIC "-//W3C//DTD SVG 20010904//EN"
 "http://www.w3.org/TR/2001/REC-SVG-20010904/DTD/svg10.dtd">
<svg version="1.0" xmlns="http://www.w3.org/2000/svg"
 width="600.000000pt" height="187.000000pt" viewBox="0 0 600.000000 187.000000"
 preserveAspectRatio="xMidYMid meet">
<g transform="translate(0.000000,187.000000) scale(0.100000,-0.100000)"
fill="#000000" stroke="none">
<path d="M1233 1746 c-191 -62 -301 -246 -272 -452 39 -276 328 -421 586 -294
187 92 261 338 165 545 -38 81 -97 139 -180 178 -58 27 -80 32 -162 34 -60 2
-110 -2 -137 -11z m194 -187 c72 -27 112 -100 113 -202 0 -129 -71 -210 -185
-210 -113 0 -185 83 -185 213 0 95 38 166 105 196 36 16 114 18 152 3z"/>
<path d="M280 1650 l0 -90 120 0 120 0 0 -295 0 -295 100 0 100 0 0 295 0 295
120 0 120 0 0 90 0 90 -340 0 -340 0 0 -90z"/>
<path d="M1866 1653 c-3 -49 -10 -198 -16 -333 -6 -135 -12 -269 -15 -297 l-5
-53 100 0 100 0 1 68 c1 37 4 139 8 227 l6 160 75 -132 75 -133 56 0 55 0 65
124 c73 142 76 141 78 -15 0 -47 4 -134 8 -192 l6 -107 104 0 104 0 -5 58 c-3
31 -10 170 -16 307 -6 138 -13 285 -16 328 l-6 77 -97 0 -97 0 -89 -164 c-49
-91 -92 -163 -96 -160 -4 2 -47 76 -95 164 l-89 160 -96 0 -97 0 -6 -87z"/>
<path d="M1250 866 c-139 -40 -228 -128 -270 -264 -75 -243 68 -483 314 -525
180 -31 352 58 429 221 30 63 32 74 32 178 0 107 -1 112 -37 186 -68 136 -180
208 -336 214 -53 2 -105 -2 -132 -10z m183 -190 c43 -17 93 -76 106 -123 33
-119 -9 -231 -104 -274 -162 -74 -313 97 -250 283 36 103 150 156 248 114z"/>
<path d="M3747 866 c-113 -32 -187 -124 -187 -234 0 -106 68 -176 218 -227
109 -36 142 -58 142 -94 0 -81 -146 -82 -260 -1 l-28 20 -61 -74 -61 -74 35
-27 c80 -60 200 -91 320 -82 125 9 215 61 259 149 35 70 34 128 -1 199 -34 66
-89 106 -194 138 -106 34 -148 57 -155 87 -5 19 -1 32 15 47 34 34 111 30 185
-11 33 -18 60 -31 61 -29 1 1 23 31 51 66 l49 63 -30 24 c-75 61 -252 90 -358
60z"/>
<path d="M4476 869 c-60 -14 -153 -68 -192 -112 -20 -22 -50 -69 -68 -106 -29
-62 -31 -73 -31 -176 0 -103 2 -114 32 -177 107 -226 388 -297 600 -152 235
161 208 560 -47 689 -81 42 -202 55 -294 34z m180 -198 c103 -47 144 -194 85
-309 -23 -46 -46 -67 -94 -87 -98 -41 -218 18 -247 123 -23 84 -7 172 43 229
56 64 134 80 213 44z"/>
<path d="M330 476 l0 -386 100 0 100 0 0 130 0 130 43 0 44 0 62 -130 63 -130
110 0 110 0 -25 43 c-13 23 -50 88 -81 144 l-56 102 45 46 c94 97 100 251 14
349 -64 72 -93 80 -326 84 l-203 4 0 -386z m363 196 c16 -17 22 -34 22 -67 0
-67 -26 -88 -115 -93 l-70 -4 0 97 0 97 70 -4 c56 -3 75 -8 93 -26z"/>
<path d="M1820 475 l0 -387 228 4 c212 3 230 5 277 26 27 13 60 32 72 44 36
33 56 99 51 163 -5 64 -41 117 -101 150 -20 11 -37 22 -37 25 0 3 13 13 29 23
16 9 39 37 50 60 49 101 7 205 -104 254 -33 14 -76 18 -252 21 l-213 4 0 -387z
m357 220 c42 -29 34 -112 -13 -134 -14 -6 -52 -11 -84 -11 l-60 0 0 80 0 80
68 0 c43 0 75 -5 89 -15z m38 -305 c35 -33 35 -97 0 -130 -21 -20 -35 -23
-107 -24 l-83 -1 -3 79 c-4 112 -6 109 88 104 66 -4 84 -9 105 -28z"/>
<path d="M2510 475 l0 -385 100 0 100 0 0 385 0 385 -100 0 -100 0 0 -385z"/>
<path d="M2800 475 l0 -385 100 0 100 0 2 218 3 217 150 -217 150 -218 88 0
87 0 0 385 0 385 -100 0 -100 0 -2 -212 -3 -212 -145 212 -145 212 -92 0 -93
0 0 -385z"/>
<path d="M5030 475 l0 -385 105 0 105 0 2 214 3 215 149 -215 149 -214 88 0
89 0 0 385 0 385 -100 0 -100 0 0 -210 c0 -115 -3 -210 -7 -210 -5 1 -72 95
-151 210 l-143 210 -95 0 -94 0 0 -385z"/>
</g>
</svg>
